<?xml version="1.0" encoding="UTF-8"?>
<svg xmlns="http://www.w3.org/2000/svg" xmlns:xlink="http://www.w3.org/1999/xlink" width="20px" height="20px" viewBox="0 0 20 20" version="1.1">
<g id="surface1">
<path style=" stroke:none;fill-rule:nonzero;fill:rgb(21.568628%,21.568628%,21.568628%);fill-opacity:1;" d="M 9.621094 1.667969 C 8.242188 1.667969 6.367188 2.503906 5.445312 3.527344 L 0.734375 8.761719 C 0.121094 9.441406 -0.164062 10.71875 0.0976562 11.597656 L 1.640625 16.738281 C 1.902344 17.613281 2.867188 18.332031 3.785156 18.332031 L 18.332031 18.332031 C 19.253906 18.332031 20 17.585938 20 16.667969 L 20 1.667969 Z M 2.609375 9.167969 L 6.683594 4.640625 C 7.289062 3.96875 8.714844 3.332031 9.621094 3.332031 L 18.332031 3.332031 L 18.332031 9.167969 Z M 18.332031 12.5 L 15 12.5 L 15 10.832031 L 18.332031 10.832031 Z M 18.332031 12.5 "/>
</g>
</svg>
